PathFileType	4	(X/Y/Z)	s05c0103.trc
DataRate	CameraRate	NumFrames	NumMarkers	Units	OrigDataRate	OrigDataStartFrame	OrigNumFrames
200	200	4	49	mm	200	250	2000
Frame#	Time	racr			lacr			c7			jug			rlel			rdr			llel			ldr			s2			lic			ric			lasi			rasi			rpsi			lpsi			rgt			lgt			rth1			rth2			rth3			rth4			rlfc			rsh1			rsh2			rsh3			rsh4			rlmal			rmmal			rcal			rtoe			rmt5			lth1			lth2			lth4			lth3			llfc			lmfc			lsh1			lsh2			lsh3			lsh4			llmal			lmmal			lcal			ltoe			lmt5			SBIKE			LBIKE			RBIKE			
		X1	Y1	Z1	X2	Y2	Z2	X3	Y3	Z3	X4	Y4	Z4	X5	Y5	Z5	X6	Y6	Z6	X7	Y7	Z7	X8	Y8	Z8	X9	Y9	Z9	X10	Y10	Z10	X11	Y11	Z11	X12	Y12	Z12	X13	Y13	Z13	X14	Y14	Z14	X15	Y15	Z15	X16	Y16	Z16	X17	Y17	Z17	X18	Y18	Z18	X19	Y19	Z19	X20	Y20	Z20	X21	Y21	Z21	X22	Y22	Z22	X23	Y23	Z23	X24	Y24	Z24	X25	Y25	Z25	X26	Y26	Z26	X27	Y27	Z27	X28	Y28	Z28	X29	Y29	Z29	X30	Y30	Z30	X31	Y31	Z31	X32	Y32	Z32	X33	Y33	Z33	X34	Y34	Z34	X35	Y35	Z35	X36	Y36	Z36	X37	Y37	Z37	X38	Y38	Z38	X39	Y39	Z39	X40	Y40	Z40	X41	Y41	Z41	X42	Y42	Z42	X43	Y43	Z43	X44	Y44	Z44	X45	Y45	Z45	X46	Y46	Z46	X47	Y47	Z47	X48	Y48	Z48	X49	Y49	Z49	
250	1.2500	432.621113	1327.245702	-137.482606	443.002069	1339.955146	-430.460614	430.632866	1409.482544	-284.129714	400.063331	1254.206471	-287.282680	508.712988	1089.847044	-35.646211	698.501201	919.626247	-101.912921	484.471715	1085.981383	-546.447268	626.467630	838.270265	-493.341011	-110.303969	1164.554307	-272.783434	37.491011	1162.992963	-418.025902	47.369960	1184.291706	-139.955155	81.616801	1108.280388	-382.837892	80.488964	1118.969318	-164.142869	-72.878306	1209.329158	-233.117090	-70.374537	1209.997637	-320.566120	-9.325551	1061.179565	-99.141339	-40.459211	1066.956018	-443.823961	92.788277	1001.132740	-85.878310	180.271828	984.592660	-85.851465	246.068000	926.093369	-91.093419	195.444228	1016.800902	-97.113976	379.420621	849.457274	-119.385263	317.426008	756.227990	-95.871255	310.360015	667.877366	-106.369526	263.681552	596.221836	-110.712852	339.074041	661.091019	-130.867455	226.964586	467.234880	-121.234643	237.786769	500.484402	-198.600597	156.929866	429.285673	-166.454471	452.093529	426.989807	-159.698763	352.875726	396.870531	-94.810176	36.428039	947.273325	-470.045315	106.980881	898.423777	-475.159223	136.000281	919.243908	-463.534291	143.711198	815.760901	-480.739913	218.318921	685.776081	-458.162533	212.940854	677.336887	-347.924712	123.380779	598.691067	-473.554027	86.262644	520.667362	-457.866219	12.761969	471.421916	-451.599323	112.120650	503.269315	-435.310551	-57.934759	368.688429	-436.915503	-21.144368	394.913794	-363.024157	-130.048688	348.054870	-390.702326	147.550279	252.535718	-401.814182	35.548441	254.764048	-462.248331	-170.042278	899.692845	-273.626643	-53.467391	79.253052	-474.633610	-53.435826	79.230334	-77.023655	
251	1.2550	432.616313	1327.214522	-137.416300	442.981621	1339.897016	-430.392024	430.653284	1409.430635	-284.071631	400.076313	1254.148299	-287.197442	508.715970	1089.828221	-35.597815	698.509323	919.614909	-101.871352	484.451754	1085.959136	-546.439626	626.427432	838.419606	-493.241158	-110.307402	1164.554802	-272.762733	37.476207	1162.980376	-417.976571	47.331200	1184.285766	-139.941666	81.614879	1108.264914	-382.805216	80.483028	1118.948996	-164.127527	-72.896933	1209.318801	-233.115526	-70.367712	1210.003413	-320.573016	-9.331487	1061.182115	-99.132356	-40.471513	1066.954581	-443.811600	92.783433	1001.152557	-85.849709	180.270160	984.660628	-85.833350	246.080640	926.141773	-91.062878	195.424645	1016.831327	-97.081329	379.446468	849.533781	-119.352481	317.412035	756.307880	-95.861608	310.327170	667.956632	-106.355908	263.665240	596.320614	-110.705857	339.065302	661.144930	-130.850893	226.956747	467.319417	-121.236878	237.764001	500.573968	-198.600874	156.897762	429.369297	-166.464083	452.070602	427.066477	-159.677832	352.852512	396.959212	-94.817995	36.410056	947.269657	-470.040747	106.950721	898.412590	-475.140514	135.985587	919.226440	-463.525137	143.691077	815.738819	-480.723753	218.275485	685.756357	-458.138134	212.905868	677.308431	-347.910730	123.365312	598.644512	-473.537636	86.263172	520.630456	-457.844354	12.764043	471.355700	-451.591208	112.125888	503.236198	-435.308519	-57.901414	368.608786	-436.904790	-21.108575	394.816759	-363.020701	-130.020615	347.978365	-390.702134	147.585582	252.449885	-401.805571	35.578737	254.693826	-462.255984	-170.099147	899.685966	-273.584873	-53.459352	79.251394	-474.623103	-53.436105	79.251990	-76.996254	
252	1.2600	432.595108	1327.175433	-137.357960	443.015082	1339.858884	-430.345397	430.647477	1409.404352	-284.014200	400.073001	1254.103180	-287.143071	508.733339	1089.804812	-35.575299	698.514305	919.601928	-101.854631	484.439446	1085.890294	-546.439148	626.462453	838.368451	-493.226642	-110.319927	1164.552214	-272.764732	37.501511	1162.978000	-417.991383	47.328828	1184.262455	-139.900994	81.609705	1108.260379	-382.796690	80.466081	1118.940746	-164.123337	-72.917616	1209.330927	-233.122159	-70.374006	1209.993621	-320.565105	-9.370693	1061.194185	-99.123479	-40.491037	1066.967380	-443.823164	92.762273	1001.180177	-85.826863	180.252242	984.723926	-85.782598	246.078173	926.258231	-91.032344	195.393486	1016.918443	-97.039429	379.459849	849.630737	-119.304418	317.416361	756.398655	-95.835108	310.289550	668.049978	-106.349008	263.647404	596.392115	-110.698424	339.051447	661.205864	-130.808797	226.919458	467.420638	-121.222190	237.720111	500.664160	-198.587228	156.864027	429.484042	-166.484280	452.039125	427.137262	-159.679121	352.798704	397.062073	-94.819156	36.391157	947.261749	-470.023439	106.934532	898.398538	-475.121418	135.955296	919.212871	-463.511585	143.650577	815.718703	-480.706461	218.221565	685.741793	-458.116022	212.871892	677.282989	-347.879681	123.340037	598.606042	-473.524009	86.260270	520.573798	-457.840800	12.764470	471.295693	-451.569305	112.113280	503.173505	-435.276545	-57.886171	368.537655	-436.901833	-21.082869	394.751840	-363.013824	-129.982165	347.882502	-390.700244	147.614299	252.373210	-401.796751	35.622352	254.564360	-462.249306	-170.040483	899.726934	-273.518205	-53.463920	79.248086	-474.646137	-53.448954	79.241041	-77.012706	
253	1.2650	432.576624	1327.138142	-137.302361	443.009654	1339.843538	-430.302240	430.634515	1409.392735	-283.925112	400.072811	1254.044281	-287.127945	508.749387	1089.785797	-35.532633	698.515133	919.619336	-101.838443	484.432625	1085.869888	-546.430762	626.419291	838.417107	-493.215652	-110.343043	1164.564282	-272.766139	37.474414	1162.955908	-417.950809	47.312824	1184.259603	-139.914716	81.601175	1108.244179	-382.803857	80.430800	1118.924959	-164.106465	-72.944401	1209.337306	-233.129694	-70.383111	1210.004412	-320.571214	-9.400328	1061.200232	-99.087825	-40.498778	1066.950888	-443.804031	92.747063	1001.213817	-85.785744	180.240060	984.757547	-85.758118	246.063596	926.325251	-90.981661	195.376709	1016.953704	-97.005479	379.461331	849.700684	-119.269083	317.414199	756.467290	-95.822409	310.280285	668.139357	-106.306688	263.600752	596.499877	-110.675364	339.019121	661.290311	-130.790804	226.865135	467.518765	-121.231220	237.680191	500.774512	-198.597246	156.828505	429.569196	-166.496114	452.008448	427.252043	-159.676212	352.752449	397.184577	-94.828687	36.371727	947.254340	-470.005242	106.909762	898.380252	-475.104291	135.941616	919.170442	-463.492198	143.617960	815.692362	-480.679092	218.182725	685.696909	-458.092665	212.796495	677.215060	-347.854189	123.286894	598.564543	-473.518591	86.226479	520.526530	-457.842977	12.761657	471.218921	-451.565936	112.111610	503.131471	-435.277467	-57.842772	368.429284	-436.904564	-21.106357	394.670155	-363.005358	-129.955031	347.774177	-390.709263	147.652509	252.284657	-401.788442	35.666894	254.444772	-462.255985	-170.012571	899.723284	-273.537360	-53.470647	79.211525	-474.609077	-53.422400	79.215747	-77.029907	
